<?xml version="1.0" encoding="utf-8"?>
<!-- Generator: Adobe Illustrator 16.0.4, SVG Export Plug-In . SVG Version: 6.00 Build 0)  -->
<!DOCTYPE svg PUBLIC "-//W3C//DTD SVG 1.1//EN" "http://www.w3.org/Graphics/SVG/1.1/DTD/svg11.dtd">
<svg version="1.1" xmlns="http://www.w3.org/2000/svg" xmlns:xlink="http://www.w3.org/1999/xlink" x="0px" y="0px"
	 width="96.378px" height="28.346px" viewBox="0 0 96.378 28.346" enable-background="new 0 0 96.378 28.346" xml:space="preserve">
<g id="Ebene_2">
</g>
<g id="Ebene_1">
	<g>
		<polygon points="63.546,18.795 59.956,22.387 59.956,24.473 65.634,24.473 65.634,18.795 		"/>
		<path d="M11.764,12.346c-0.322,0.677-0.867,1.146-1.635,1.409c0.384,0.141,0.741,0.353,1.075,0.636
			c0.333,0.283,0.621,0.61,0.863,0.984c0.243,0.375,0.429,0.778,0.56,1.211c0.131,0.435,0.197,0.873,0.197,1.318v1.422
			c0,0.769-0.116,1.465-0.348,2.089c-0.232,0.627-0.565,1.166-1,1.62c-0.434,0.455-0.953,0.808-1.56,1.061
			c-0.605,0.251-1.282,0.377-2.028,0.377h-7.913V3.883h7.368c1.515,0,2.71,0.423,3.588,1.271c0.879,0.848,1.317,2.03,1.317,3.544
			v1.332C12.249,10.896,12.087,11.67,11.764,12.346z M3.731,12.452h2.705c0.706,0,1.221-0.162,1.544-0.485
			c0.322-0.323,0.484-0.837,0.484-1.544V9.09c0-0.706-0.162-1.196-0.484-1.468C7.656,7.35,7.142,7.213,6.436,7.213H3.731V12.452z
			 M9.069,17.72c0-0.706-0.236-1.257-0.711-1.649c-0.474-0.394-1.065-0.591-1.771-0.591H3.731v5.664H6.98
			c0.708,0,1.23-0.127,1.575-0.38c0.343-0.251,0.514-0.731,0.514-1.438V17.72z"/>
		<path d="M25.563,3.883h3.755v14.382c0,1.072-0.177,2.01-0.53,2.816c-0.353,0.809-0.842,1.485-1.468,2.029
			c-0.627,0.545-1.378,0.959-2.256,1.242c-0.877,0.282-1.853,0.424-2.921,0.424c-1.07,0-2.045-0.136-2.922-0.409
			c-0.879-0.271-1.636-0.681-2.271-1.226c-0.636-0.544-1.126-1.227-1.469-2.043c-0.344-0.817-0.514-1.761-0.514-2.833V3.883h3.754
			v14.382c0,1.091,0.297,1.893,0.893,2.408c0.595,0.515,1.427,0.772,2.498,0.772s1.913-0.258,2.529-0.772
			c0.616-0.515,0.923-1.317,0.923-2.408V3.883z"/>
		<path d="M41.411,20.34c-0.242,0.232-0.5,0.429-0.772,0.59c-0.273,0.163-0.581,0.288-0.923,0.378
			c-0.344,0.092-0.748,0.137-1.211,0.137c-2.04,0-3.06-0.989-3.06-2.967V9.877c0-0.947,0.268-1.679,0.803-2.194
			c0.536-0.515,1.276-0.772,2.225-0.772c0.929,0.02,1.701,0.242,2.317,0.667C41.405,8,41.854,8.445,42.137,8.909l2.392-2.332
			c-0.364-0.545-0.752-1.01-1.165-1.394C42.95,4.801,42.5,4.488,42.016,4.245c-0.484-0.241-1.014-0.413-1.59-0.513
			C39.852,3.63,39.2,3.58,38.472,3.58c-0.988,0-1.896,0.146-2.725,0.439c-0.828,0.292-1.544,0.711-2.15,1.256
			c-0.605,0.545-1.075,1.207-1.408,1.984s-0.499,1.65-0.499,2.618v8.602c0,2.079,0.62,3.648,1.862,4.708
			c1.241,1.06,2.892,1.59,4.952,1.59c1.211,0,2.29-0.208,3.24-0.621c0.934-0.407,1.82-1.047,2.657-1.916l-2.432-2.432
			C41.768,19.999,41.581,20.176,41.411,20.34z"/>
		<path d="M58.299,16.766c-0.188-0.604-0.461-1.104-0.776-1.528c-0.311-0.424-0.776-0.863-1.219-1.186
			c-0.444-0.323-1.188-0.806-1.876-1.19c-0.556-0.311-1.96-1.071-2.535-1.424c-0.575-0.353-1.073-0.737-1.5-1.151
			c-0.424-0.413-0.665-0.863-0.665-1.329c0-0.767,0.19-1.22,0.607-1.593c0.362-0.326,0.903-0.485,1.725-0.455
			c0.343,0.012,0.695,0.071,1.059,0.212c0.363,0.141,0.717,0.317,1.06,0.529c0.345,0.212,0.667,0.444,0.97,0.697
			c0.153,0.127,0.292,0.253,0.418,0.377l2.459-2.456c-0.357-0.41-0.756-0.783-1.195-1.117c-0.455-0.342-0.928-0.63-1.424-0.863
			c-0.495-0.23-0.996-0.407-1.498-0.529C53.402,3.64,52.917,3.58,52.452,3.58c-0.928,0-1.789,0.111-2.588,0.333
			c-0.796,0.222-1.477,0.56-2.044,1.014c-0.565,0.455-1.01,1.025-1.332,1.71c-0.323,0.688-0.484,1.495-0.484,2.423
			c0,0.849,0.131,1.585,0.394,2.211c0.262,0.626,0.582,1.081,0.991,1.543c0.383,0.43,0.855,0.849,1.349,1.21
			c0.856,0.625,1.777,1.157,2.322,1.452c0.646,0.351,1.518,0.799,2.001,1.121c0.485,0.324,0.893,0.672,1.227,1.045
			c0.332,0.374,0.477,1.008,0.498,1.44c0.045,0.908-0.396,1.542-0.881,1.854c-0.485,0.314-1.017,0.448-1.905,0.448
			c-0.988,0-1.744-0.355-2.373-0.744c-0.914-0.565-1.712-1.552-1.712-1.552l-2.489,2.489c0,0,1.27,1.483,2.73,2.289
			c1.151,0.637,2.458,0.916,3.952,0.916c0.889,0,1.854-0.18,2.624-0.423c0.765-0.242,1.37-0.609,1.946-1.083
			c0.576-0.474,1.029-1.06,1.363-1.756c0.333-0.697,0.605-1.478,0.623-2.386C58.684,18.006,58.523,17.471,58.299,16.766z"/>
		<path fill-rule="evenodd" clip-rule="evenodd" fill="#A31220" d="M68.016,26.737c0,0.898,0.729,1.625,1.627,1.625h25.11
			c0.896,0,1.625-0.726,1.625-1.625V1.626C96.378,0.729,95.65,0,94.753,0h-25.11c-0.898,0-1.627,0.729-1.627,1.626V26.737z"/>
		<polygon fill="#FFFFFF" points="77.4,3.885 72.575,3.885 72.575,24.472 77.398,24.472 77.398,9.533 73.641,9.533 77.4,5.775 		"/>
		<polygon fill="#FFFFFF" points="80.97,3.885 78.397,6.458 78.397,8.709 82.276,8.709 82.276,24.472 86.963,24.472 86.963,8.708 
			89.99,8.708 94.811,3.885 		"/>
		<g>
			<linearGradient id="SVGID_1_" gradientUnits="userSpaceOnUse" x1="94.8687" y1="13.9199" x2="70.644" y2="13.9199">
				<stop  offset="0" style="stop-color:#FFFFFF;stop-opacity:0.47"/>
				<stop  offset="0.1325" style="stop-color:#FFFFFF;stop-opacity:0.4077"/>
				<stop  offset="1" style="stop-color:#FFFFFF;stop-opacity:0"/>
			</linearGradient>
			<path fill-rule="evenodd" clip-rule="evenodd" fill="url(#SVGID_1_)" d="M70.652,27.839c0,0,1.782-0.014,2.934-0.147
				C85.976,26.258,96.067,12.519,94.753,0H70.65C70.636,2.516,70.652,27.839,70.652,27.839z"/>
			<linearGradient id="SVGID_2_" gradientUnits="userSpaceOnUse" x1="94.8687" y1="13.9199" x2="70.644" y2="13.9199">
				<stop  offset="0" style="stop-color:#FFFFFF;stop-opacity:0.47"/>
				<stop  offset="0.1325" style="stop-color:#FFFFFF;stop-opacity:0.4077"/>
				<stop  offset="1" style="stop-color:#FFFFFF;stop-opacity:0"/>
			</linearGradient>
			<path opacity="0.37" fill-rule="evenodd" clip-rule="evenodd" fill="url(#SVGID_2_)" d="M70.652,27.839
				c0,0,1.782-0.014,2.934-0.147C85.976,26.258,96.067,12.519,94.753,0H70.65C70.636,2.516,70.652,27.839,70.652,27.839z"/>
			<linearGradient id="SVGID_3_" gradientUnits="userSpaceOnUse" x1="96.6831" y1="5.603" x2="66.5664" y2="15.973">
				<stop  offset="0" style="stop-color:#FFFFFF;stop-opacity:0.47"/>
				<stop  offset="0.091" style="stop-color:#FFFFFF;stop-opacity:0.4036"/>
				<stop  offset="0.6442" style="stop-color:#FFFFFF;stop-opacity:0"/>
			</linearGradient>
			<path opacity="0.78" fill-rule="evenodd" clip-rule="evenodd" fill="url(#SVGID_3_)" d="M70.652,27.839
				c0,0,1.786,0.001,2.934-0.147C85.992,26.088,96.067,12.519,94.753,0H70.65C70.636,2.516,70.652,27.839,70.652,27.839z"/>
		</g>
	</g>
</g>
</svg>
